<svg xmlns="http://www.w3.org/2000/svg" width="62" height="70" viewBox="0 0 62 70" fill="none">
  <path d="M56.5524 13.1708L36.4263 1.46979C33.0553 -0.49231 28.8594 -0.49231 25.4884 1.48411L5.49025 13.1851C2.16196 15.1472 0.0853407 18.7706 0.0711172 22.6519L0 47.2998C0 51.224 2.07662 54.8761 5.44758 56.8382L25.5738 68.5392C27.2521 69.5131 29.1438 70 31.0213 70C32.8988 70 34.819 69.4987 36.4974 68.5105L56.4955 56.8096C59.838 54.8618 61.9147 51.224 61.9289 47.3428L62 22.6948C62 18.7706 59.9234 15.1329 56.5524 13.1708ZM8.34916 18.1405L15.7169 13.8296C16.8263 13.1851 18.5474 13.5288 20.8373 14.8607L40.9635 26.5617C42.585 27.507 43.5806 29.2542 43.5664 31.1304L43.4953 55.85C43.538 57.6259 42.9833 58.1128 41.5325 58.9578L37.4646 61.3353V43.0176C37.4646 39.0934 35.3879 35.4413 32.017 33.4792L11.8908 21.7782C10.3831 20.9046 8.23538 20.4033 6.17298 20.6325C6.6139 19.6013 7.36775 18.7133 8.34916 18.1405ZM5.68938 46.4691L5.74627 27.6645C5.74627 26.7193 6.04496 26.5474 6.1303 26.4901C6.79881 26.1034 8.29227 26.3039 9.03189 26.7336L24.3221 35.6275L5.67516 46.4691H5.68938ZM8.02202 51.7253L29.9261 38.9931C31.0782 39.9813 31.7752 41.4422 31.7752 43.0176V64.2283C30.6373 64.4001 29.4425 64.1853 28.4184 63.5838L8.02202 51.7253ZM23.0562 9.53301L28.3473 6.43948C29.1581 5.96686 30.0684 5.72339 30.9644 5.72339C31.8605 5.72339 32.7708 5.95254 33.5673 6.42516L53.6935 18.1261C55.315 19.0714 56.3106 20.8187 56.2964 22.6948L56.2253 47.3428C56.2253 49.2046 55.2296 50.9376 53.6224 51.8685L49.1705 54.4751L49.2416 31.1447C49.2416 27.2205 47.165 23.5685 43.794 21.6064L23.0562 9.53301Z" fill="black"/>
</svg>